<?xml version="1.0" encoding="UTF-8"?>
<!DOCTYPE svg  PUBLIC '-//W3C//DTD SVG 1.1//EN'  'http://www.w3.org/Graphics/SVG/1.1/DTD/svg11.dtd'>
<svg enable-background="new 0 0 2487.53 1623.811" version="1.1" viewBox="0 0 2487.53 1623.811" xml:space="preserve" xmlns="http://www.w3.org/2000/svg">
	<path d="m1672.7 216.89c11.959-0.489 23.845-1.193 35.79 1.29 12.798 2.659 23.339 9.074 33.06 17.294 1.765 1.493 3.479 3.173 3.415 5.825-0.057 2.378-0.021 4.375-3.341 5.038-5.026 1.004-9.895 2.786-14.838 4.211-14.215 4.099-28.94 5.268-43.448 4.359-12.39-0.776-23.975-6.173-34.8-12.56-11.18-6.597-14.76-6.123-23.511 2.743-8.918 9.036-17.147 18.74-24.163 29.233-8.743 13.077-20.89 21.319-35.024 26.685-11.016 4.182-22.569 6.978-33.941 10.185-22.425 6.325-40.265 18.574-50.791 39.85-7.132 14.415-18.09 25.441-30.194 35.426-16.951 13.983-34.035 27.743-48.843 44.128-11.747 12.997-21.024 27.254-26.547 44.005-4.601 13.956-12.224 26.504-19.552 39.16-2.321 4.008-5.921 8.199-5.951 12.329-0.026 3.583 4.186 7.184 6.489 10.8 6.951 10.91 16.795 17.25 29.366 20.503 11.594 3 23.49 3.514 35.136 5.871 14.069 2.848 24.645-3.708 32.911-14.15 6.863-8.67 11.089-18.731 13.15-29.768 1.515-8.114 3.74-16.125 6.115-24.042 3.423-11.411 3.069-23.031 2.769-34.697-0.072-2.809-1.552-6.364 2.305-7.773 3.604-1.317 5.292 1.963 7.304 4.019 1.634 1.669 2.941 3.614 3.268 6.055 0.369 2.752 1.94 4.966 3.521 7.091 3.645 4.899 5.269 5.057 10.793 2.328 10.794-5.331 18.777-13.616 24.818-23.771 7.794-13.103 19.221-22.865 29.914-33.298 4.274-4.17 9.16-7.706 13.659-11.655 7.922-6.952 16.869-11.657 27.443-12.945 8.778-1.07 17.112 1.662 25.455 3.468 11.59 2.508 22.615 7.341 34.652 8.191 13.713 0.968 25.299-3.623 35.516-12.481 2.496-2.164 5.3-3.992 8.064-5.819 2.017-1.333 4.559-2.36 6.33-0.169 1.895 2.346-0.136 4.309-1.864 5.887-2.2 2.009-4.558 3.847-6.765 5.848-0.419 0.38-0.64 1.182-0.633 1.785 0.015 1.446 1.276 1.196 2.14 1.252 5.874 0.379 10.982-2.474 16.243-4.296 8.081-2.798 15.935-6.286 23.781-9.718 13.04-5.704 22.52-14.976 28.309-28.14 5.482-12.465 13.482-22.786 26.263-28.737 7.312-3.404 14.273-6.867 22.995-5.516 6.109 0.946 12.535 0.6 18.849-0.831 4.922-1.115 6.65 1.009 6.585 6.013-0.058 4.514-2.443 8.212-3.97 12.23-3.327 8.757-7.693 16.909-13.408 24.342-6.877 8.945-15.371 15.364-26.765 17.284-1.401 0.236-2.78 0.695-2.923 2.138-0.061 0.614 1.133 1.564 1.948 2.019 8.825 4.934 14.341 12.69 18.596 21.555 3.165 6.594 6.538 13.096 9.468 19.792 1.732 3.958 0.56 5.699-3.718 5.703-5.821 5e-3 -11.319-0.113-17.277-2.408-7.244-2.79-15.27-3.963-22.579-7.161-11.511-5.036-21.361-12.033-28.406-22.724-3.813-5.786-4.113-5.712-9.442-1.975-5.077 3.56-10.545 5.357-16.801 4.927-11.765-0.808-22.892 2.524-34.119 5.345-5.6 1.407-9.532 4.633-12.15 9.507-5.306 9.878-13.422 14.255-24.579 13.37-4.31-0.342-8.731 0.222-12.958-0.483-2.995-0.499-4.911-0.836-6.28 2.502-0.682 1.663-3.152 2.054-4.219 0.569-5.304-7.381-13.884-8.589-21.433-11.608-4.802-1.921-8.392-4.379-11.191-9.075-4.899-8.22-7.718-8.257-16.161-2.895-19.523 12.399-34.583 29.047-46.509 48.659-4.435 7.294-10.268 12.855-17.643 17.198-12.202 7.186-22.901 16.119-29.439 29.092-3.752 7.445-6.02 15.194-6.808 23.69-1.212 13.062-8.379 23.578-17.359 32.769-3.264 3.34-6.67 6.529-9.153 10.497-2.919 4.663-2.683 8.809 1.536 12.368 5.059 4.267 10.419 8.438 17.912 6.996 2.263-0.436 4.688-0.587 6.966-0.298 15.797 2.004 29.578-3.652 41.884-12.389 13.165-9.346 27.649-15.631 42.561-21.07 6.21-2.265 13.147-2.616 19.301 1.162 12.239 7.514 25.78 8.244 39.461 7.263 5.186-0.372 10.251-2.551 15.345-3.994 1.577-0.447 3.031-1.529 4.613-1.713 2.562-0.298 5.694-1.607 7.616 0.65 2.249 2.641-0.461 5.038-1.901 6.992-2.365 3.21-2.423 5.925 0.128 8.963 1.299 1.547 1.875 3.563 1.796 5.609-0.09 2.326-1.067 4.074-3.702 2.773-4.745-2.343-9.654-4.294-14.464-6.45-11.765-5.273-21.915-0.489-32.222 4.075-1.948 0.863-2.034 2.586-0.759 4.068 3.914 4.549 7.995 8.847 13.884 11.023 19.51 7.211 31.245 21.762 38.226 40.779 0.95 2.589 1.02 5.22 1.069 7.864 0.187 9.99 0.347 19.981 0.372 29.972 0.011 4.569-1.954 5.967-6.4 4.292-2.748-1.035-5.246-2.798-7.757-4.391-23.913-15.178-37.623-36.754-41.127-64.946-1.768-14.221-8.899-26.322-16.438-38.146-1.429-2.241-3.043-2.628-5.817-1.227-17.094 8.633-34.933 15.589-52.666 22.768-7.637 3.092-16.206 3.29-23.563 7.205-5.831 3.103-11.568 6.32-17.9 8.364-4.543 1.466-8.963 2.062-13.703 0.703-9.86-2.827-19.704-5.722-28.982-10.12-13.519-6.408-27.904-10.223-42.119-14.555-6.281-1.914-12.704-3.369-18.959-5.358-3.979-1.265-7.974-1.796-11.692-0.076-6.112 2.826-12.433 1.606-18.695 1.769-4.938 0.128-7.749-3.428-10.742-6.47-10.693-10.866-10.421-10.369-24.991-3.901-10.531 4.675-18.986 10.739-23.321 21.696-0.359 0.907-1.147 1.634-1.638 2.501-1.953 3.448-5.73 5.602-6.832 9.648 4.527 1.12 7.991-2.073 11.911-3.203 10.926-3.15 21.717-4.543 33.169-3.187 9.652 1.144 18.939 2.974 27.827 6.792 4.732 2.032 4.993 3.112 2.791 7.36-1.438 2.774-3.785 4.633-6.093 6.52-14.766 12.072-30.835 17.17-49.893 10.946-6.891-2.251-13.98-3.869-20.46-7.222-6.332-3.277-11.251-1.63-15.866 3.471-10.95 12.104-22.278 23.868-33.186 36.008-16.475 18.335-32.911 36.712-49.012 55.374-14.126 16.373-27.839 33.107-41.591 49.799-5.085 6.173-4.03 10.472 3.619 12.51 13.759 3.666 27.734 6.355 42.148 5.54 4.664-0.264 8.621-3.699 13.578-2.613 2.34 0.513 4.888 0.557 5.229 3.539 0.366 3.196-0.335 6.018-4.162 6.806-15.175 3.124-30.075 7.561-45.949 6.557-11.257-0.711-22.604 0.065-33.911 0.049-3.279-5e-3 -5.913 1.485-8.043 3.499-2.882 2.725-5.459 5.84-7.791 9.06-2.698 3.726-2.211 4.837 2.401 5.938 5.475 1.307 11.152 1.708 16.634 2.699 24.735 4.47 49.98 8.109 67.73 29.152 3.921 4.648 6.772 9.832 9.662 15.052 4.714 8.518 11.467 14.304 20.865 17.399 6.151 2.026 11.321 0.997 15.656-3.241 13.611-13.309 26.222-27.292 33.523-45.435 2.726-6.774 6.138-13.032 6.256-20.631 0.069-4.445 2.815-8.552 5.876-11.339 9.764-8.89 18.549-19.128 31.555-23.9 4.631-1.699 9.496-2.258 14.12-4.398 5.623-2.604 9.321 0.376 8.335 6.574-2.916 18.341-5.995 36.777-18.268 51.845-1.867 2.292-4.216 4.237-6.528 6.112-5.41 4.386-5.532 8.728 0.437 11.881 11.879 6.276 21.377 15.601 31.724 23.846 1.295 1.032 2.637 2.11 3.601 3.427 1.585 2.165 0.393 4.806-2.433 4.89-9.971 0.296-19.477 3.739-29.653 3.318-17.113-0.706-32.816-4.56-46.16-15.819-1.017-0.858-2.044-1.742-3.192-2.394-1.215-0.69-2.353-0.709-3.372 0.701-3.813 5.277-3.443 10.77 1.516 15.131 1.958 1.722 4.389 2.976 6.746 4.163 22.768 11.466 45.524 22.959 68.368 34.271 20.172 9.988 40.623 19.356 61.502 27.818 11.674 4.731 22.5 4.528 34.387-0.169 32.242-12.74 64.089-26.362 95.657-40.652 3.507-1.587 7.465-3.956 9.844-0.476 2.594 3.795-1.729 6.348-4.356 8.84-11.371 10.787-25.796 16.049-39.858 21.85-18.618 7.681-37.412 14.936-56.122 22.395-1.224 0.488-2.414 1.091-3.556 1.752-2.562 1.481-3.008 3.325-0.889 5.61 1.812 1.953 3.588 3.943 5.306 5.978 0.881 1.044 1.355 2.34 0.861 3.688-0.702 1.914-2.505 1.911-4.142 2.102-1.723 0.201-3.204-0.52-4.777-1.114-26.805-10.13-53.595-20.299-80.464-30.256-33.759-12.51-67.621-24.733-100.31-39.947-4.276-1.99-8.534-5.605-13.943-3.674-1.539 0.549-3.623 1.26-4.173 2.477-0.734 1.625 1.225 2.897 2.575 3.765 21.952 14.121 37.789 34.423 54.493 53.844 15.631 18.175 31.056 36.529 46.891 54.524 7.257 8.247 12.061 17.36 13.54 28.247 1.746 12.854 8.525 20.442 21.695 22.301 9.135 1.29 15.62 6.83 22.834 11.375 1.445 0.91 2.471 2.519 1.876 4.255-0.63 1.841-2.569 1.84-4.218 1.953-18.606 1.272-35.05-4.302-50.11-15.119-11.084-7.961-19.147-18.546-26.545-29.581-15.385-22.951-31.042-45.678-47.943-67.553-7.63-9.876-17.425-17.399-26.617-25.533-12.444-11.011-25.514-21.314-38.336-31.897-5.098-4.208-5.266-4.274-8.882 1.209-5.493 8.329-11.027 16.651-16.038 25.27-3.9 6.707-8.774 11.333-16.706 12.786-5.156 0.944-5.521 2.249-2.666 6.641 8.708 13.396 17.529 26.719 26.39 40.014 3.871 5.808 8.222 11.313 11.841 17.267 2.729 4.49 6.406 7.62 10.895 9.95 23.868 12.387 46.153 27.467 69.475 40.786 13.251 7.568 26.153 15.745 39.332 23.443 9.871 5.765 20.884 7.715 32.015 9.797 14.751 2.759 29.009 7.339 37.077 21.839 3.408 6.125 9.433 9.318 14.791 13.142 15.127 10.796 30.95 20.604 45.617 32.06 7.322 5.719 14.027 12.198 22.504 16.431 17.333 8.655 34.856 12.623 54.627 8.842 17.82-3.408 35.422-7.944 53.467-10.431 14.993-2.067 29.896-5.421 44.512-9.403 12.2-3.324 23.045-10.096 33.579-17.103 2.489-1.656 4.983-3.311 7.381-5.093 11.86-8.814 24.497-15.897 39.466-17.773 3.59-0.45 4.464-1.922 2.749-5.256-6.593-12.816-9.023-26.923-12.419-40.73-1.3-5.285-0.064-10.596-0.281-15.901-1.027-25.121 2.544-49.567 11.766-73.036 2.671-6.796 5.672-13.496 9.018-19.984 4.916-9.531 3.812-19.24 2.157-29.228-3.2-19.313-5.543-38.58-2.881-58.352 1.456-10.808 1.877-21.826 4.182-32.518 1.616-7.496 3.157-14.913 3.106-22.61-0.061-9.255-1.166-10.268-10.526-8.937-3.29 0.468-6.524 1.362-9.821 1.726-1.878 0.207-4.33 0.373-4.864-2.22-0.512-2.488 1.37-3.394 3.455-3.946 1.209-0.32 2.369-0.826 3.551-1.249-0.657-1.462-2.151-1.369-3.359-1.8-1.881-0.672-4.132-1.192-3.907-3.759 0.219-2.496 2.516-2.659 4.433-3.165 2.566-0.676 5.088-1.516 7.647-2.218 12.395-3.402 18.433-10.856 18.818-23.504 0.152-4.988 0.312-10.005-1.514-14.822-0.468-1.234-0.821-2.58-0.882-3.891-0.571-12.299-1.496-24.539-3.507-36.722-0.966-5.856 0.42-6.577 5.862-4.202 10.911 4.764 21.2 10.933 32.669 14.443 15.181 4.646 30.396 9.393 46.543 8.154 7.65-0.587 14.49-4.402 21.594-7.037 4.326-1.604 8.627-3.374 12.713-5.502 7.146-3.721 14.756-3.414 22.38-3.087 5.16 0.221 5.951 1.057 5.132 5.987-1.208 7.271-3.404 14.495-8.234 20.027-10.971 12.564-10.922 27.331-9.604 42.43 0.719 8.236 2.657 9.687 11.325 10.227 8.633 0.538 11.639 5.965 6.905 13.566-1.42 2.281-0.113 2.763 0.603 3.944 0.973 1.603 0.977 3.317-0.049 4.681-1.111 1.475-2.99 1.589-4.513 0.689-4.147-2.451-9.913-5.247-12.991-2.658-4.015 3.378-0.027 9.116 0.832 13.913 1.749 9.765 3.8 19.385 6.403 28.99 3.123 11.529 9.098 21.279 15.706 30.796 10.464 15.07 19.575 30.866 26.087 48.023 5.856 15.428 7.049 31.569 7.086 47.992 0.033 14.842-2.464 29.1-7.259 42.971-1.902 5.501-2.975 10.94-2.434 16.612 1.109 11.643 0.308 23.256 0.069 34.89-0.135 6.581 1.878 8.554 7.655 6.128 9.002-3.782 19.509-0.906 27.775-7 9.942 0.474 20.079-1.684 29.797 0.868 7.824 2.055 15.676 3.627 23.604 3.145 11.674-0.71 23.38 1.113 34.892-0.095 10.58-1.11 21.004 0.313 31.504 0.023 10.12-0.279 18.403-3.671 25.031-10.208 5.359-5.286 11.745-8.846 17.995-11.987 6.079-3.055 13.492-3.74 20.214-6.025 9.246-3.143 19.029-4.582 27.742-9.476 3.711-2.084 8.484-0.721 11.421 2.871 3.11 3.803 6.808 6.052 11.637 7.015 7.292 1.454 13.812 6.419 21.875 4.649 0.871-0.191 2.032 1.6 3.218 2.061 3.463 1.345 7.526 2.701 10.681 0.969 6.112-3.354 12.766-1.301 18.921-3.072 6.061-1.744 12.176-3.328 18.161-5.305 13.829-4.569 27.52-9.568 41.404-13.957 15.904-5.027 24.249-16.619 28.741-31.768 2.169-7.314 3.761-14.81 6.146-22.048 5.26-15.961 15.431-27.109 31.237-33.93 5.743-2.479 11.756-3.419 17.465-5.723 6.965-2.811 11.501 0.501 11.591 8.484 0.175 15.515-2.415 30.482-13.344 42.677-5.129 5.723-10.654 10.99-17.067 15.287-1.063 0.712-2.607 1.795-2.624 2.73-0.026 1.434 1.852 1.424 3.07 1.608 13.799 2.084 23.767 9.725 30.883 21.397 2.905 4.764 7.373 7.527 11.997 10.214 1.988 1.155 4.374 2.389 3.623 5.269-0.658 2.524-3.125 2.034-5.007 2.138-13.183 0.731-26.305 3.224-39.586 0.387-9.693-2.071-19.007-5.201-28.315-8.472-5.594-1.966-11.322-3.549-16.903-5.547-2.805-1.004-4.482 0.077-5.829 2.239-1.479 2.374-0.785 4.335 1.204 6.163 2.071 1.903 5.929 3.049 4.547 6.848-1.433 3.939-5.275 1.236-7.895 2.094-0.633 0.207-1.278 0.421-1.933 0.503-4.2 0.526-19.727 8.276-23.03 10.911-8.013 6.392-16.322 12.18-27.518 10.573-2.942-0.422-6.016-0.351-8.985-0.057-5.296 0.524-10.467 1.167-15.304-2.068-1.277-0.854-3.205-1.098-4.809-1.031-6.015 0.252-11.858-0.258-17.397-2.821-0.292-0.135-0.651-0.164-0.981-0.176-18.431-0.627-36.542-5.626-55.195-3.602-16.589 1.8-32.468 5.859-47.59 12.92-2.504 1.169-4.223 3.176-6.158 4.993-12.381 11.621-27.039 17.102-44.05 16.738-5.606-0.12-11.323-0.977-16.876 0.849-0.914 0.301-2.374 0.661-2.886 0.208-7.11-6.29-16.533-4.101-24.661-5.982-9.623-2.227-19.595-4.499-30.224-3.848-8.735 0.534-15.635 3.826-23.111 6.756-0.916 0.359-1.64 1.321-1.222 2.417 0.158 0.414 0.991 0.772 1.538 0.806 6.625 0.411 12.808 3.903 19.661 2.778 1.995-0.328 3.969-0.118 5.771 1.017 4.938 3.11 10.361 0.899 15.385 1.544 4.622 0.593 9.1 4.135 14.2 3.441 5.737-0.78 11.005 0.495 16.573 1.562 13.065 2.504 26.328 3.382 39.626 0.958 3.208-0.585 6.693-0.839 9.864-0.247 15.208 2.841 30.525 1.174 45.781 1.337 6.083 0.065 10.654 1.418 14.876 6.141 9.468 10.593 21.767 17.538 35.155 21.246 13.073 3.62 26.785 4.112 40.148-0.24 5.038-1.641 10.16-1.848 15.503-2.074 11.011-0.465 21.605-3.049 27.838-14.099 7.497-13.292 19.261-21.389 33.246-27.149 10.937-4.505 21.844-4.076 32.863-2.084 6.723 1.216 13.541 2.389 19.909 5.336 4.854 2.246 5.121 2.087 2.547 6.954-2.334 4.413-4.933 8.686-7.281 13.093-7.407 13.901-19.655 21.552-33.758 27.402-13.631 5.654-26.161 2.829-38.556-3.12-6.973-3.347-21.508-2.067-27.03 3.595-3.783 3.879-8.178 6.766-12.378 9.999-10.304 7.933-11.665 13.312-6.483 24.847 3.535 7.868 6.682 15.918 10.42 23.685 3.389 7.043 8.392 11.384 16.8 13.509 6.089 1.539 11.587 3.552 18.051 2.775 3.879-0.466 6.478 4.736 10.961 3.827 7.95-1.612 14.662 3.645 22.259 4.05 1.442 0.077 2.419 0.923 2.494 2.512 0.09 1.9-0.831 3.688-2.577 3.629-8.894-0.301-17.059 5.497-26.36 2.612-4.654-1.443-11.672-2.93-14.157 0.691-3.119 4.545 3.591 8.357 5.992 12.436 2.519 4.279 6.069 8.022 10.417 10.632 6.033 3.622 11.84 6.858 19.357 2.115 3.034-1.915 7.445-2.566 10.932-4.314 3.392-1.701 6.781-2.006 10.411-2.534 11.151-1.622 21.208 0.916 31.134 5.777 10.051 4.922 20.459 9.108 30.614 13.826 2.678 1.244 5.078 3.155 7.46 4.952 2.682 2.023 6.005 4.507 3.629 8.121-1.945 2.958-6.181 3.189-9.116 1.658-12.335-6.436-25.593-10.343-38.797-14.206-10.625-3.109-23.537-0.74-29.761 8.154-0.85 1.215-2.936 2.128-1.438 4.047 0.809 1.037 2.075 1.504 3.511 1.576 7.292 0.367 7.801 0.488 6.574 7.342-0.595 3.325 0.459 4.826 2.402 6.793 9.131 9.246 18.135 18.616 27.25 27.878 6.096 6.194 13.029 11.414 20.271 16.137 21.58 14.071 27.796 34.474 24.501 58.787-0.682 5.035-0.186 9.948-0.01 14.932 0.152 4.31-2.095 5.477-5.688 3.281-0.84-0.513-1.48-1.341-2.274-1.942-9.861-7.468-18.38-16.39-26.884-25.276-11.88-12.412-17.01-28.294-21.718-44.298-1.184-4.024-0.698-10.311-4.737-11.042-3.118-0.565-4.41 5.899-6.655 9.135-3.977 5.733-7.451 11.82-11.533 17.472-3.39 4.694-4.632 10.243-6.871 15.375-1.188 2.722-0.206 5.73 1.646 8.46 2.48 3.656 5.594 6.519 8.98 9.253 7.065 5.703 8.194 13.373 6.531 21.702-0.466 2.333-1.925 4.259-4.801 4.27-2.338 9e-3 -3.273-1.307-4.267-3.338-2.327-4.756-5.002-9.36-7.799-13.862-2.301-3.703-4.117-3.415-6.349 0.479-1.565 2.732-1.793 5.694-1.861 8.687-0.045 1.99 0.346 3.991 0.291 5.981-0.061 2.187 0.673 5.171-2.365 5.751-3.979 0.76-5.279-2.424-5.617-5.466-0.667-5.992-0.861-12.25 1.651-17.748 3.819-8.362 1.785-15.473-2.851-22.531-1.267-1.93-2.626-3.907-3.339-6.062-0.724-2.189-0.939-4.913 1.188-6.473 1.972-1.446 4.794-1.567 6.446 0.335 3.906 4.494 5.584 2.091 7.748-1.667 8.684-15.089 12.751-31.439 10.801-48.553-1.498-13.146-10.072-21.994-22.558-26.695-0.911-0.343-2.025-0.197-2.889-0.607-2.313-1.098-4.396-3.767-7.166-2.216-3.352 1.876-3.3 5.685-3.359 8.936-0.186 10.255-1.927 20.615 1.982 30.658 0.683 1.755 0.305 3.956 0.272 5.948-0.04 2.387-0.19 4.824-3.437 5.047-2.883 0.198-4.014-1.376-4.597-4.064-1.612-7.434-3.283-14.843-5.522-22.149-2.252-7.349-5.151-14.277-8.761-21.065-9.068-17.047-19.689-33.145-29.73-49.593-7.926-12.983-19.92-21.441-33.712-27.088-17.731-7.26-34.966-15.566-52.338-23.59-21.345-9.859-41.502-22.042-62.653-32.246-17.814-8.594-35.005-18.464-53.73-25.255-13.514-4.901-27.219-5.367-41.166-4.665-7.784 0.392-14.323 7.135-14.259 15.123 0.221 27.372 5.77 52.852 26.953 72.515 6.441 5.979 10.884 13.531 14.71 21.274 6.8 13.761 16.863 23.58 31.301 29.059 3.609 1.37 7.363 2.878 10.175 5.939 1.455 1.584 2.714 3.109 1.78 5.226-1.248 2.825-3.811 2.259-6.033 1.653-1.908-0.521-3.679-1.536-5.518-2.317-1.402-0.596-2.647-0.281-3.42 0.993-0.826 1.361-0.151 2.645 0.876 3.527 11.587 9.959 22.494 20.757 35.774 28.624 4.136 2.45 8.085 3.238 11.93-0.075 2.384-2.054 4.801-2.014 7.428-1.021 1.758 0.664 4.488 0.102 4.955 2.525 0.588 3.045-1.635 5.553-4.034 6.159-4.278 1.081-7.927 3.28-11.788 5.099-3.312 1.561-4.862 3.535-3.319 7.873 4.761 13.388 9.321 26.806 12.076 40.894 1.201 6.138 3.33 11.784 1.534 18.044-0.177 0.616-0.089 1.334-0.016 1.992 1.1 9.832 0.958 19.347-2.133 29.103-2.766 8.73 2.552 16.016 8.532 22.044 2.755 2.777 6.322 4.842 9.742 6.852 17.185 10.098 29.09 23.838 32.243 44.273 0.791 5.129 3.517 9.937 5.082 14.976 1.191 3.836-0.644 6.395-4.453 5.289-10.388-3.016-21.338-4.722-30.346-11.481-4.492-3.37-6.679-8.23-8.564-13.196-4.228-11.139-8.252-22.355-12.281-33.569-0.484-1.347-1.06-2.603-2.449-2.723-0.465-0.04-1.153 1.424-1.586 2.278-1.665 3.282-2.931 6.665-3.34 10.396-0.345 3.158-2.47 4.738-5.598 4.16-2.588-0.479-2.402-2.856-2.371-4.811 0.062-3.994 0.287-7.956 1.18-11.904 2.556-11.298 5.095-22.612 5.036-34.306-0.038-7.62 0.22-15.245 3e-3 -22.859-0.869-30.422-11.702-56.778-32.533-79.015-5.921-6.32-11.616-12.853-17.601-19.11-3.312-3.462-4.143-3.174-6.62 0.564-5.127 7.735-10.226 15.436-13.813 24.099-1.89 4.565-2.11 8.139 1.822 11.621 2.229 1.974 3.918 4.542 6.039 6.654 9.802 9.762 14.416 22.05 17.284 35.196 0.281 1.291 0.408 2.653 0.356 3.973-0.186 4.713-3.127 6.302-7.298 3.917-6.02-3.443-11.938-7.066-17.996-10.439-6.527-3.635-6.53-3.496-12.038 1.28-9.809 8.505-19.654 16.97-29.55 25.374-1.685 1.431-3.249 3.806-5.976 2.682-3.131-1.291-4.242-3.988-4.242-7.259-1e-3 -5.331 0.093-10.669-0.115-15.993-0.554-14.194 6.823-23.851 17.812-31.434 2.73-1.884 5.782-3.298 8.557-5.125 7.059-4.648 12.404-10.454 16.214-18.388 4.738-9.866 10.092-19.385 13.372-29.919 1.178-3.783 1.182-7.116-0.791-10.515-1.503-2.59-2.58-5.493-4.404-7.819-6.174-7.876-11.704-16.182-17.098-24.59-1.072-1.67-2.092-3.867-4.457-3.128-2.035 0.636-2.838 2.882-2.795 4.853 0.141 6.404-3.823 12.088-3.068 18.603 0.137 1.186-0.548 2.595-1.182 3.714-0.976 1.723-2.173 3.651-4.503 3.309-2.772-0.407-1.901-2.945-2.328-4.746-3.039-12.818-5.749-25.73-9.291-38.409-8.016-28.694-16.485-57.258-25.848-85.554-5.287-15.976-15.804-25.175-31.622-31.61-13.895-5.653-26.057-1.903-38.797 0.417-11.959 2.178-23.633 5.887-35.473 8.759-5.326 1.292-6.235 2.056-6.318 8.271-0.11 8.329-0.267 16.674 0.103 24.99 0.648 14.568-3.85 28.113-7.85 41.744-4.755 16.202-11.208 31.816-15.297 48.32-2.737 11.045 5.275 26.982 14.887 32.32 9.648 5.357 19.376 5.709 29.131-0.182 7.138-4.311 10.759-12.373 8.694-20.535-0.225-0.889-0.18-2.035-1.541-2.24-1.113-0.167-1.953 0.274-2.526 1.108-0.746 1.087-1.273 2.323-2.014 3.413-2.389 3.512-5.396 5.792-9.998 5.147-1.633-0.229-3.328 0.018-4.994-6e-3 -10.812-0.154-16.334-6.308-14.885-17.131 2.951-22.04 25.767-34.663 45.169-26.918 16.413 6.552 23.272 18.569 24.73 35.144 1.497 17.03-3.091 31.762-16.278 43.029-13.738 11.738-29.386 17.02-47.812 14.33-17.781-2.595-31.501-11.506-42.802-24.73-11.965-14-13.965-30.474-10.578-47.898 5.191-26.707 13.903-52.443 22-78.345 1.382-4.421 2.585-8.922 3.499-13.461 1.554-7.716-2.649-17.094-10.037-21.291-9.593-5.449-19.491-6.49-30.607-3.519-12.557 3.357-23.418 8.964-32.943 17.474-5.298 4.734-11.246 4.14-16.799 1.662-6.42-2.865-12.153-2.517-18.126 0.705-2.907 1.568-6.156 2.522-9.002 4.18-15.742 9.167-31.347 18.568-47.139 27.647-4.19 2.409-7.647 5.183-9.687 9.619-2.384 5.183-6.49 7.269-12.131 6.682-2.973-0.309-6.102 0.14-8.941-0.597-15.83-4.109-31.363-2.925-47.416-0.214-12.403 2.094-24.541 5.335-36.953 7.233-1.935 0.296-3.799 1.137-5.657 1.829-2.817 1.048-3.915 2.577-3.345 6.057 1.529 9.346 6.804 15.597 14.732 20.048 11.683 6.559 22.276 14.48 30.508 25.166 9.185 11.922 14.634 25.213 13.228 40.571-0.593 6.474-3.692 12.642-1.475 19.484 0.767 2.366-1.859 3.427-3.988 2.592-1.793-0.703-3.364-2.098-4.876-3.373-8.139-6.864-16.525-13.472-24.268-20.761-12.094-11.383-17.896-26.225-20.561-42.191-0.981-5.876-2.854-11.523-3.57-17.5-0.591-4.94-4.398-8.851-9.453-10.809-8.818-3.415-14.424-10.274-19.528-17.826-6.42-9.5-15.131-16.863-24.136-23.679-31.543-23.875-62.774-48.19-95.501-70.45-13.739-9.345-28.172-17.605-42.899-25.33-6.067-3.182-12.374-4.835-19.229-3.932-5.536 0.729-7.317 3.081-6.763 8.812 0.58 6.001 2.362 7.69 8.118 7.28 7.977-0.569 15.92-1.12 23.868 0.486 15.703 3.174 27.803 12.335 38.799 23.266 3.519 3.498 7.805 6.319 10.266 10.804 1.946 3.547 0.854 5.862-3.184 6.014-10.973 0.412-21.957 0.524-32.936 0.779-1.997 0.046-3.996 0.155-5.987 0.322-2.789 0.234-4.151 1.853-4.125 4.607 0.016 1.663-0.086 3.383 0.289 4.978 4.622 19.64 2.496 38.813-3.725 57.754-1.453 4.425-3.956 5.668-7.92 3.506-0.574-0.313-1.048-0.82-1.549-1.258-13.351-11.68-26.037-23.663-31.476-41.583-1.709-5.63-1.205-11.157-2.32-16.646-1.344-6.622-1.238-6.637-6.83-3.266-13.895 8.377-29.212 10.237-45.03 9.856-4.094-0.098-5.162-2.207-4.332-5.893 1.272-5.644 4.008-10.491 7.766-14.83 12.322-14.23 25.935-26.405 44.578-32.148 10.569-3.256 12.241-11.048 5.491-20.41-2.545-3.53-5.739-6.468-9.278-9.02-17.85-12.87-33.393-28.519-50.687-42.06-28.709-22.479-53.176-49.285-77.645-76.092-2.47-2.707-4.863-5.554-7.685-7.854-5.344-4.357-11.173-7.157-18.359-4.189-13.061 5.394-26.737 3.735-40.3 3.28-2.374-0.08-4.474-0.934-6.696-1.68-13.091-4.39-20.252-1.974-28.478 9.007-5.459 7.287-12.523 12.894-20.053 17.828-11.393 7.465-22.873 14.814-34.538 21.844-11.612 6.999-19.55 23.356-15.006 39.165 1.603 5.576 1.93 11.223 1.846 16.818-0.451 29.896 6.582 58.586 15.113 86.756 8.571 28.299 25.823 51.106 51.831 65.814 10.978 6.208 15.147 15.032 16.545 26.32 0.787 6.357 2.714 12.253 5.595 17.941 3.805 7.511 14.195 12.463 23.888 7.66 7.846-3.888 14.663-9.065 21.602-14.181 6.175-4.553 7.33-4.213 8.563 3.04 2.661 15.651 12.803 25.248 27.223 28.385 18.342 3.99 31.999 13.194 42.823 28.159 8.438 11.666 19.904 20.505 31.001 29.55 15.74 12.829 31.549 25.574 47.42 38.241 8.198 6.543 17.871 9.749 27.9 12.497 12.494 3.423 25.111 2.164 37.694 2.299 14.662 0.158 29.33-0.26 43.993-0.151 9.359 0.069 18.508-1.457 27.729-2.628 7.801-0.991 15.724-0.685 23.371-3.306 2.403-0.824 5.074-0.775 7.415-2.324 2.846-1.884 6.011-1.691 7.844 1.338 2.112 3.489-0.972 5.543-3.243 7.331-1.781 1.402-3.923 2.812-6.083 3.187-9.413 1.631-18.453 5.292-28.299 4.688-7.626-0.467-15.222 0.074-22.864 1.256-8.127 1.257-16.299 3.3-24.753 1.59-2.82-0.57-5.984 0.159-8.927 0.666-14.98 2.577-30.074 4.539-44.739 8.808-3.616 1.052-4.32 2.316-2.573 5.504 6.371 11.626 15.111 19.553 28.863 22.035 11.255 2.031 22.557 4.36 32.869 10.205 15.868 8.995 24.681 22.938 28.996 39.935 1.205 4.75 3.596 9.299 3.402 14.471-0.129 3.434-0.814 5.875-4.856 5.897-1.651 9e-3 -3.468 0.723-4.924 0.245-10.055-3.299-20.932-3.334-30.652-7.99-11.298-5.412-21.391-12.135-27.803-23.344-0.627-1.096-1.731-2.477-2.783-2.641-1.554-0.242-1.658 1.767-1.861 2.798-3.642 18.519-19.146 26.172-32.642 35.574-3.397 2.366-5.575 1.363-6.597-2.571-2.353-9.056-2.984-17.966-1.486-27.542 2.729-17.447 8.233-33.489 18.26-47.955 2.571-3.709 0.248-5.342-2.302-7.2-13.166-9.59-26.377-19.12-39.455-28.829-16.826-12.491-34.212-24.284-50.081-37.99-12.842-11.092-24.834-23.162-37.517-34.444-15.442-13.737-31.722-26.279-52.126-32.005-8.795-2.468-17.778-2.633-26.759-1.659-4.77 0.517-5.45 2.021-3.288 6.818 3.551 7.879 7.204 15.72 11.101 23.433 5.574 11.031 9.509 22.731 12.319 34.612 1.717 7.26 0.633 15.213 0.516 22.85-0.023 1.481-1.219 3.071-2.181 4.385-1.994 2.722-4.401 2.445-6.334-0.464-1.775-2.67-1.836-5.607-1.698-8.648 0.209-4.62-0.52-8.748-5.974-10.046-2.394-0.57-2.825-2.432-3.055-4.545-1.454-13.331-8.165-24.527-15.526-35.101-10.842-15.575-21.76-31.015-30.63-47.873-5.738-10.906-11.152-21.948-15.788-33.323-5.385-13.215-13.477-23.464-26.898-29.203-13.124-5.612-21.746-15.677-28.147-28.295-7.985-15.741-12.975-32.61-19.566-48.867-5.226-12.889-10.227-25.869-15.429-38.767-1.113-2.759-2.403-5.515-4.056-7.974-5.479-8.151-12.471-13.087-23.675-6.192-11.554 7.111-23.962 11.432-36.932 13.878-10.082 1.902-20.505 1.428-30.803-0.343-12.044-2.072-24.18-3.604-36.279-5.35-1.316-0.19-2.684-0.108-3.973-0.397-20.686-4.632-41.614-3.271-62.565-3.191-12.428 0.048-24.415 2.375-36.586 3.779-5.205 0.6-10.441 2.23-15.229 3.779-9.267 2.998-18.45 2.277-27.646 2.338-10.216 0.067-20.371 0.32-30.608-2.663-10.082-2.938-20.512 0.165-30.163 3.888-12.321 4.753-24.181 10.599-36.095 16.341-15.449 7.447-31.765 12.696-48.372 17.3-18.374 5.094-37.281 5.646-55.882 8.627-7.169 1.149-14.622 0.433-21.931 0.833-3.213 0.176-7.715-0.101-8.764 3.211-1.31 4.136 3.498 4.663 6.14 6.344 9.315 5.928 12.932 15.45 13.072 25.502 0.444 32.026 22.137 42.788 43.758 46.216 8.772 1.391 17.382 3.841 26.167 5.107 11.131 1.604 21.835 4.899 32.717 7.456 15.101 3.548 30.067 7.669 45.096 11.526 4.175 1.071 8.34 2.21 12.56 3.069 4.922 1.002 8.094-1.879 10.932-5.362 7.047-8.648 13.984-10.909 24.304-6.929 11.391 4.393 22.841 6.797 35.126 5.095 5.569-0.772 11.35-0.647 16.819 1.278 2.101 0.74 4.894 1.192 4.72 4.274-0.18 3.184-2.983 3.338-5.214 3.4-10.313 0.289-20.635 0.997-30.898-1.021-8.511-1.673-16.878-3.801-25.088-6.599-3.615-1.232-7.237-1.704-10.038 1.786-1.243 1.55-2.685 3.194-2.015 5.361 0.673 2.178 2.782 3.07 4.705 3.03 9.389-0.193 18.336 3.186 27.734 3.07 15.289-0.188 30.504-0.834 45.783-1.886 16.705-1.15 28.214-8.968 38.46-20.177 13.272-14.519 26.879-28.63 41.934-41.319 2.812-2.37 5.531-4.974 9.06-5.92 2.487-0.667 5.618-0.405 7.175 2.116 1.431 2.317-0.103 4.587-1.88 6.166-5.47 4.861-10.575 10.382-16.73 14.172-13.71 8.442-20.669 21.184-25.042 35.86-2.863 9.607-9.351 15.333-19.213 15.462-8.795 0.115-16.867 3.413-25.344 4.889-13.613 2.37-27.032 5.748-40.617 8.345-7.706 1.473-15.687 2.02-23.26 4.99-5.723 2.244-12.238 2.509-18.422 3.521-3.726 0.61-5.485 1.934-3.451 5.971 4.037 8.01 7.869 16.124 11.765 24.206 1.899 3.938 4.013 4.036 7.746 1.63 13.585-8.757 28.794-11.899 44.712-10.527 8.865 0.764 17.808 2.32 26.328 4.835 6.041 1.784 12.706 0.511 18.304 4.339 1.884 1.289 4.172 1.957 5.495 4.031 2.881 4.519 1.464 8.609-3.797 9.97-2.529 0.654-5.291 0.762-7.918 0.614-10.021-0.568-19.905-0.078-29.804 1.883-6.516 1.291-13.25 1.043-19.936 0.885-7.294-0.172-14.609-0.491-21.788 1.837-3.545 1.15-4.39 2.206-2.024 5.357 6.782 9.036 13.161 18.384 20.154 27.249 17.425 22.09 31.732 45.783 39.607 73.054 1.645 5.698 4.787 10.903 6.137 16.781 0.635 2.764 1.55 5.379-1.853 6.687-2.526 0.971-4.533-0.281-5.89-2.484-3.133-5.084-6.763-9.88-8.85-15.569-8.211-22.38-20.496-42.346-35.792-60.554-10.075-11.993-20.539-23.61-31.959-34.345-4.567-4.293-4.915-4.554-10.08-0.831-5.634 4.062-11.949 7.287-16.302 13.035-2.897 3.825-3.919 7.464-1.223 11.897 3.965 6.521 7.666 13.204 11.401 19.861 2.277 4.058 4.385 8.21 6.613 12.296 0.991 1.817 1.534 3.75 1.195 5.764-0.398 2.367-1.312 4.583-4.044 5.077-2.268 0.41-3.824-0.993-4.954-2.696-2.204-3.322-4.058-6.889-6.405-10.101-6.481-8.87-13.117-17.628-19.738-26.396-5.946-7.874-13.925-13.176-22.438-17.892-13.373-7.409-27.717-12.516-41.983-17.734-14.22-5.201-28.774-9.483-43.039-14.569-6.749-2.406-13.497-2.5-20.443-2.177-4.983 0.232-9.985 0.024-14.978 0.072-3.208 0.031-4.862-1.568-5.394-4.651-0.736-4.261-2.36-8.53-2.221-12.75 0.389-11.763-2.42-23.131-3.572-34.69-0.884-8.876-2.438-17.724-4.319-26.45-1.361-6.313-2.48-6.542-8.947-7.06-14.206-1.137-28.422-2.244-42.579-3.848-4.644-0.526-7.571 0.681-10.038 4.473-5.664 8.705-10.135 17.991-12.895 27.952-2.78 10.031 0.186 14.21 10.117 17.869 7.066 2.603 14.558 4.25 20.949 8.627 2.377 1.628 4.523 3.06 3.204 6.292-1.151 2.818-3.773 2.366-6.027 2.144-1.598-0.158-3.227-0.703-4.693-1.393-8.975-4.224-18.201-7.804-27.487-11.285-8.333-3.123-9.666-5.945-10.06-15.099-0.388-9.009 3.705-16.73 6.316-24.873 3.574-11.145 3.779-11.242-6.203-16.781-14.8-8.213-29.758-16.141-44.58-24.316-9.571-5.279-18.815-6.087-27.857 1.099-1.55 1.232-3.248 2.395-5.058 3.164-7.61 3.233-12.339 1.042-14.18-6.934-3.789-16.411-15.39-23.366-30.569-27.42-9.989-2.668-20.601-0.897-30.22-5.245-1.438-0.65-3.289-0.594-4.938-0.534-8.35 0.302-16.535-1.546-24.738-2.011-11.005-0.624-21.793-2.417-32.493-4.33-13.627-2.436-26.765-7.046-38.976-13.933-8.92-5.032-17.969-9.446-28.499-10.764-5.374-0.673-10.677-2.987-16.127-4.311-13.086-3.18-26.117-6.536-39.394-8.861-5.624-0.985-7.109-2.497-7.877-8.443-0.553-4.281-0.945-8.615-0.964-12.927-0.095-21.332-0.12-42.666 9e-3 -63.998 0.036-5.979 0.667-11.955 1.042-17.931 0.206-3.279 1.899-5.16 5.196-4.173 4.775 1.43 9.732 1.535 14.578 3.007 14.323 4.351 29.12 6.59 44.041 8.132 10.901 1.126 21.624 3.597 32.517 5.047 10.252 1.365 20.56 1.412 30.779 2.763 5.587 0.739 11.354 0.347 16.563 3.08 3.617 1.898 7.127 0.898 10.615-0.418 9.367-3.535 18.879-7.173 26.927-12.999 16.777-12.145 35.149-21.537 53.125-31.508 10.225-5.671 17.12-13.286 22.528-23.083 2.562-4.642 5.305-9.256 8.532-13.448 12.191-15.837 29.005-20.071 47.829-17.632 7.534 0.976 13.734-0.684 19.544-5.083 1.591-1.205 3.183-2.41 4.742-3.656 10.68-8.542 22.828-12.46 36.48-13.912 11.287-1.2 21.79-5.479 26.824-17.574 2.043-4.909 2.314-9.771 1.531-14.663-0.99-6.189-3.064-12.2-4.138-18.381-3.161-18.189-4.493-36.296 4.567-53.46 4.895-9.273 12.105-16.576 20.004-23.282 2.657-2.255 3.768-0.997 5.056 1.672 3.468 7.188 5.406 14.924 8.348 22.267 3.332 8.318 3.385 16.835 3.441 25.456 0.043 6.681-0.429 13.173-3.827 19.307-2.52 4.549-2.056 5.413 2.981 6.766 7 1.88 14.276 3.418 21.312 4.175 7.282 0.784 14.016 4.631 21.507 3.484 0.319-0.049 0.669 0.024 0.992 0.099 2.695 0.626 5.439 1.895 6.46 4.269 1.284 2.986-1.571 4.822-3.66 6.353-11.526 8.452-23.655 15.375-37.707 19.343-12.91 3.645-25.523 3.495-38.448 1.799-0.927-0.122-2.597-5e-3 -2.753 0.424-0.518 1.43 0.595 2.133 1.845 2.859 8.395 4.871 18.019 5.289 27.027 5.52 28.933 0.743 57.65 4.682 86.63 4.9 12.397 0.093 22.47-2.755 29.585-12.681 15.377-21.453 35.786-38.554 51.184-59.97 6.226-8.659 12.31-17.38 17.247-26.846 12.183-23.359 27.073-44.986 42.322-66.39 3.157-4.431 7.203-8.001 11.69-10.773 12.693-7.84 25.585-15.368 38.573-22.711 2.615-1.479 6.41-4.666 8.944-1.355 2.961 3.868-1.457 6.695-3.845 9.018-5.982 5.82-13.128 10.106-20.42 14.146-12.375 6.857-23.819 15.005-30.759 27.696-6.689 12.233-12.654 24.868-18.729 37.427-3.327 6.878-6.405 13.892-9.257 20.98-2.216 5.507 0.734 9.28 5.993 7.055 6.578-2.783 13.733-1.43 20.291-4.606 5.727-2.773 9.885 0.769 8.921 6.11-0.245 1.358-0.529 2.748-1.955 3.187-3.464 1.065-6.243 3.886-10.189 3.733-16.08-0.625-29.089 6.567-39.892 17.399-18.104 18.155-35.258 37.218-50.11 58.222-3.485 4.929-5.936 10.251-7.883 15.971-1.699 4.992-3.969 9.893-6.693 14.409-3.828 6.345-9.9 8.153-17.055 6.474-7.721-1.812-15.586-3.011-23.3-4.848-15.136-3.604-30.579-5.587-45.822-8.637-8.021-1.605-16.231-3.079-24.451-4.01-8.566-0.97-17.177-0.935-25.786-2.161-6.93-0.986-14.548 0.989-21.556 2.818-14.411 3.76-27.739 10.608-41.677 15.759-2.296 0.849-4.25 2.378-3.611 5.202 0.539 2.379 2.705 2.669 4.756 2.678 2.997 0.012 6.131 0.469 8.969-0.231 11.661-2.875 23.796-2.277 35.458-5.215 6.164-1.553 12.611-0.518 18.934-0.561 2.605-0.018 4.281 1.364 5.747 3.368 2.175 2.974 4.502 5.97 5.301 9.549 4.064 18.213 16.066 31 29.083 43.116 2.429 2.261 5.103 4.258 7.627 6.42 5.946 5.093 8.775 5.246 14.62-0.156 4.888-4.517 9.285-9.562 14.072-14.194 2.946-2.85 5.843-8.06 10.575-4.765 3.856 2.685-0.8 6.578-1.038 9.988-0.226 3.231-4.849 6.24-1.833 9.095 2.956 2.799 6.686-0.065 10.052-1.261 16.478-5.857 32.822-12.031 48.97-18.765 15.115-6.302 27.776-15.99 37.864-28.499 23.446-29.073 49.675-55.631 74.188-83.722 17.281-19.803 33.694-40.375 50.217-60.828 19.666-24.342 39.035-48.923 58.532-73.401 4.56-5.725 9.266-11.343 13.636-17.21 4.319-5.798 6.747-11.6 3.276-19.35-4.382-9.786-0.124-19.357 5.32-27.176 10.723-15.402 15.997-32.756 19.946-50.547 1.921-8.653 2.678-17.886 2.69-26.701 0.019-13.791 5.946-25.012 12.1-36.316 3.565-6.548 6.344-13.085 6.599-20.592 0.055-1.634 0.219-3.4 0.893-4.845 1.074-2.304 3.152-3.463 5.753-2.838 2.433 0.585 3.113 2.792 2.61 4.706-1.073 4.085-0.029 7.943 0.592 11.845 1.007 6.334 4.034 9.246 10.508 9.59 5.983 0.317 12.018 0.418 17.991 0.021 11.917-0.793 22.762 3.19 33.69 6.925 1.232 0.421 2.236 1.571 3.474 1.9 2.372 0.629 5.014 3.029 7.198 0.661 1.581-1.714 0.803-4.4 0.019-6.659-6.182-17.808-12.369-35.615-18.503-53.439-1.72-4.998-2.92-10.202-4.974-15.052-4.403-10.396-11.137-18.838-21.632-23.815-3.443-1.633-6.146-1.43-8.778 1.739-6.393 7.697-12.803 15.337-16.198 24.96-0.22 0.625-0.268 1.328-0.571 1.903-0.86 1.632-2.21 2.399-4.084 1.96-1.584-0.372-1.965-1.696-2.114-3.018-1.454-12.905 2.242-24.246 13.743-32.066 0.546-0.371 1.22-0.552 1.777-0.91 4.967-3.194 4.896-3.151 1.384-7.968-10.364-14.216-15.805-30.206-14.268-47.702 0.859-9.773 3.529-19.556 7.53-28.692 2.463-5.624 5.564-5.653 9.205-0.307 6.555 9.625 13.091 19.27 19.303 29.117 2.307 3.657 4.088 3.516 6.81 0.76 1.865-1.889 4.315-3.238 6.021-5.24 11.25-13.202 27.279-16.893 42.784-21.438 6.448-1.89 9.369 0.975 7.66 7.09-2.853 10.206-5.685 20.475-9.507 30.338-4.393 11.337-11.102 21.117-22.459 26.992-4.274 2.211-4.201 3.528 0.192 5.686 12.636 6.206 22.281 15.542 29.642 27.379 3.633 5.842 2.734 7.71-4.054 7.635-9.32-0.103-18.632-0.895-27.953 0.117-2.225 0.242-4.313 0.645-3.307 3.419 7.101 19.589 11.465 40.242 22.4 58.347 3.635 6.018 8.098 11.435 13.443 16.013 4.628 3.964 6.25 3.817 11.556 0.902 4.249-2.334 7.467-5.627 9.739-9.763 3.198-5.822 6.455-11.656 9.04-17.759 5.334-12.593 11.909-24.482 19.029-36.122 4.667-7.629 6.447-16.08 4.638-24.851-3.544-17.184-7.259-34.348-12.286-51.175-5.899-19.746-7.267-39.497-2.615-59.817 4.795-20.944 8.473-42.142 12.812-63.193 1.003-4.865 2.741-9.54 3.168-14.58 0.558-6.587-0.576-12.516-4.591-17.91-4.369-5.868-8.474-11.93-12.749-17.868-7.246-10.063-10.81-21.125-10.071-33.657 0.448-7.594-0.491-15.257 1.728-22.742 1.264-4.264 2.508-5.228 6.233-3.328 13.465 6.867 22.61 17.488 25.868 32.337 2.354 10.727 3.434 21.684 0.801 32.643-0.219 0.909 0.124 1.954 0.206 2.935 0.883-0.34 1.882-0.521 2.625-1.056 1.341-0.967 2.458-2.245 3.801-3.208 1.15-0.825 2.466-0.92 3.577 0.223 0.799 0.822 0.863 1.964 0.262 2.719-4.37 5.489-2.941 11.541-2.415 17.773 0.535 6.337-2.543 12.218-4.255 18.244-2.53 8.908-5.181 17.783-7.638 26.711-0.38 1.381-1.203 3.569 0.463 4.247 1.054 0.429 1.706-1.763 2.176-2.95 2.824-7.137 6.098-14.05 10.228-20.525 10.706-16.786 24.791-29.599 44.398-34.624 7.604-1.949 15.671-3.151 23.72-2.736 5.159 0.266 6.77 2.327 4.971 6.926-8.656 22.123-21.783 40.2-44.869 49.27-10.127 3.979-20.051 8.479-30.2 12.401-3.82 1.476-6.967 3.807-10.225 6.06-3.467 2.398-5.955 6.115-6.14 9.933-0.784 16.233-4.836 32.244-3.215 48.635 1.179 11.927 5.321 22.947 13.142 31.69 7.393 8.265 11.109 17.103 10.892 27.952-0.03 1.489-0.505 3.634 1.644 4.207 1.966 0.524 2.858-1.31 3.847-2.537 11.49-14.244 22.943-28.518 34.411-42.781 0.835-1.039 1.653-2.099 2.567-3.066 2.183-2.305 4.313-6.584 7.881-3.702 3.022 2.441 0.417 6.504-1.198 9.007-6.299 9.764-12.272 19.749-20.03 28.55-9.251 10.496-18.39 21.079-28.099 31.164-3.528 3.665-3.172 4.342 1.755 5.27 6.605 1.244 13.244 1.292 19.91 0.617 2.315-0.234 4.644-0.558 6.958-0.501 1.742 0.043 3.265 1.012 3.133 3.041-0.1 1.537-1.453 2.163-2.834 2.271-4.981 0.391-9.785 1.658-14.665 2.584-19.652 3.731-30.522 16.447-36.005 34.498-1.689 5.559-0.797 11.646-2.284 17.589-2.77 11.074-8.36 20.095-15.748 28.388-5.75 6.455-11.58 12.818-15.922 20.432-4.71 8.259-7.257 17.111-7.906 26.45-0.383 5.508 1.448 6.598 6.576 4.67 6.183-2.324 12.12-5.121 18.665-6.656 16.193-3.798 32.681-6.348 49.128-5.825 13.933 0.443 27.887 1.29 41.856 1.471 1.885 0.025 4.259-0.366 4.947 2.221 0.73 2.747-1.186 4.463-3.118 5.691-1.325 0.842-3.143 1.112-4.772 1.239-8.295 0.649-16.625 1.873-24.895 1.575-13.684-0.494-27.152 1.983-40.819 1.963-9.634-0.014-18.556 4.433-26.585 10.056-15.309 10.722-29.375 22.909-42.667 36.013-17.428 17.181-36.263 32.333-59.706 40.62-8.617 3.046-15.979 8.003-23.052 13.592-7.198 5.687-11.99 13.327-17.067 20.728-1.79 2.609-1.36 5.748-1.348 8.745 0.011 2.657 0.032 5.325-0.189 7.969-0.111 1.33-0.898 2.514-2.355 2.925-1.889 0.534-3.237-0.277-4.075-1.909-1.057-2.06-1.935-4.212-3.001-6.268-1.446-2.79-1.774-7.58-4.715-7.796-3.14-0.23-4.528 4.328-6.349 7.009-6.172 9.088-12.187 18.282-18.226 27.459-2.743 4.168-5.592 8.283-8.044 12.619-2.301 4.069-1.664 7.33 2.31 9.216 7.75 3.679 15.52 7.957 23.769 9.761 8.18 1.79 16.497-1.595 23.719-5.761 4.614-2.662 2.786-7.914 1.676-11.858-1.002-3.557-2.177-6.969-1.909-10.69 0.12-1.66 0.4-3.38 2.442-3.845 1.88-0.428 3.188 0.538 4.186 1.983 1.136 1.644 2.161 3.364 3.302 5.004 0.739 1.062 1.477 2.272 3.126 1.749 1.718-0.545 1.496-2.142 1.456-3.315-0.194-5.814 3.428-10.718 3.755-16.41 0.1-1.735 1.305-3.144 3.212-3.26 2.007-0.123 2.859 1.279 3.218 3.06 0.327 1.625 0.389 3.376 1.064 4.842 1.279 2.779 2.863 5.352 6.778 4.224 1.957-0.564 3.974-0.235 5.882 0.514 2.806 1.101 3.817 4.355 1.656 6.377-2.415 2.26-5.079 4.394-7.965 5.984-6.254 3.445-9.128 9.568-12.471 15.231-2.246 3.805-0.823 5.977 3.541 6.963 7.738 1.748 15.425 3.755 23.213 5.233 6.869 1.303 13.614 0.997 20.658-0.614 10.991-2.514 21.668-5.58 32.159-9.739 14.512-5.753 26.786-14.603 37.67-25.501 6.823-6.831 13.218-14.093 19.732-21.228 4.897-5.364 10.369-8.07 18.142-8.543 29.726-1.809 56.134-12.287 78.096-32.922 11.462-10.77 21.269-22.913 30.362-35.719 3.736-5.262 4.71-10.085 0.866-15.534-1.143-1.621-2.058-3.414-2.973-5.183-2.643-5.109-2.82-7.122 2.03-10.084 9.731-5.943 15.546-15.461 22.736-23.619 11.652-13.221 23.539-26.266 34.206-40.369 5.972-7.895 9.621-16.141 11.26-26.003 2.807-16.891 2.352-33.818 2.823-50.765 0.08-2.86-2.018-8.072 2.737-8.086 4.548-0.014 4.251 5.112 4.274 8.737 0.061 9.665 0.109 19.333-0.038 28.996-0.082 5.392 0.659 10.47 2.573 15.604 1.623 4.355 2.157 8.28 8.532 5.86 2.71-1.028 4.309 1.833 3.254 4.421-0.976 2.393-2.931 4.388-4.457 6.557-12.316 17.502-28.204 31.857-42.188 47.889-9.013 10.333-16.916 21.405-22.37 34.083-0.4 0.93-0.895 1.886-0.128 2.701 1.315 1.396 2.407 0.352 3.248-0.659 7.873-9.46 17.042-17.702 24.873-27.254 9.483-11.567 20.21-22.106 29.973-33.456 11.495-13.363 22.538-27.117 33.771-40.706 10.603-12.826 21.196-25.659 31.8-38.484 2.546-3.079 5.341-5.981 7.628-9.241 3.715-5.296 8.345-9.431 13.976-12.548 15.922-8.814 26.07-22.346 31.793-39.372 2.525-7.513 5.396-14.999 6.947-22.73 2.877-14.335 9.843-26.7 17.119-38.997 3.052-5.158 6.404-10.136 9.48-15.28 5.56-9.298 7.514-18.802 2.817-29.311-4.319-9.662-7.014-19.791-8.46-30.447-2.315-17.058 0.118-33.124 7.332-48.494 3.526-7.512 7.931-14.614 12.004-21.864 0.815-1.45 1.99-2.826 3.808-2.85 2.239-0.03 2.219 1.96 2.718 3.493 5.123 15.725 10.896 31.21 11.896 48.047 0.875 14.739-3.009 28.2-8.689 41.421-2.097 4.881-4.21 9.757-6.227 14.672-0.469 1.142-1.586 2.646-0.293 3.614 1.186 0.888 2.333-0.433 3.357-1.184 14.058-10.312 23.69-24.142 31.177-39.595 3.911-8.072 5.785-16.879 8.377-25.416 1.208-3.978 0.295-8.026-0.891-11.809-1.956-6.243-1.014-12.554-1.085-18.842-0.024-2.181 1.012-3.925 3.541-3.839 2.029 0.069 2.712 1.612 2.966 3.37 0.143 0.988 0.129 2.004 0.326 2.979 0.564 2.785 2.266 3.323 4.106 1.37 14.743-15.65 18.384-36.994 4.117-54.08-5.535-6.629-12.03-12.449-17.996-18.725-3.225-3.393-6.197-7.008-7.101-11.825-0.252-1.342-0.36-2.788 0.868-3.635 1.521-1.051 3.376-0.75 4.626 0.326 1.48 1.275 2.506 3.068 3.765 4.607 7.625 9.324 16.128 17.723 25.983 24.705 6.431 4.556 6.44 4.591 11.957-1.607 6.418-7.209 12.636-14.604 19.227-21.65 9.931-10.616 22.313-17.44 35.645-22.979 9.574-3.978 18.31-9.352 23.483-19.116 5.871-11.082 5.366-22.39 1.91-33.883-1.909-6.348-4.39-12.53-6.144-18.916-3.494-12.724-3.161-25.488 0.444-38.177 3.937-13.856 13.391-23.354 24.565-31.63 2.99-2.214 4.885-1.558 6.497 1.156 7.147 12.027 14.063 24.127 13.678 38.851-0.252 9.618 0.805 19.342-3.322 28.528-1.524 3.393 0.497 5.123 3.598 5.432 5.961 0.594 12.37 2.428 17.835 0.949 9.075-2.456 17.085 0.799 25.439 2.146 2.981 0.481 7.596-0.71 8.852 3.066 1.498 4.502-3.292 6.07-5.914 8.202-11.078 9.01-22.525 17.466-36.778 20.996-1.567 0.388-2.968 1.497-3.706 3.131-10.205-0.195-20.41-0.404-30.616-0.561-0.968-0.015-2.041 0.1-2.895 0.509-2.838 1.357-3.449 3.917-2.769 6.65 0.681 2.735 2.987 3.535 5.447 2.841 10.308-2.911 20.992-4.651 30.651-9.631 4.501 0.779 8.008-3.251 12.498-2.573 1.845 0.279 4.282-0.634 5.079 1.868 0.786 2.467-1.198 3.42-3.04 4.345-5.923 2.974-12.021 5.508-18.665 6.16-4.999 0.49-9.308 2.021-13.866 4.447-12.784 6.807-26.469 11.836-38.87 19.509-11.008 6.811-22.074 13.511-32.951 20.546-11.403 7.376-18.454 17.758-24.269 29.625-7.471 15.246-11.886 31.519-17.083 47.535-1.948 6.005 0.89 8.54 7.272 7.444 8.702-1.494 15.437-5.819 20.225-13.165 6.331-9.715 15.283-15.032 26.614-17.323 6.83-1.381 13.551-2.529 20.52-3.215 8.465-0.834 16.469-4.601 23.747-9.461 15.602-10.419 28.572-23.798 41.894-36.802 14.283-13.942 28.642-27.805 43.018-41.651 4.527-4.36 9.85-7.115 15.958-9.047 10.681-3.38 21.124-7.549 31.557-11.664 5.814-2.293 11.591-4.331 17.776-5.615 6.781-1.407 13.153-4.351 19.01-8.379 6.206-4.27 6.351-4.02 11.361 1.887 0.856 1.009 2.028 1.75 2.887 2.757 4.511 5.294 3.715 6.039-2.902 9.197-12.642 6.033-26.396 9.196-38.768 16.058-4.971 2.757-11.252 3.692-16.803 5.854-1.81 0.705-3.855 1.256-4.165 3.699-0.93 0.202-2.454-1.034-2.502 1 1e-3 0.119 1.765-0.266 2.341-1.184zm-867.32 853.46c10.997 0.381 21.77-2.447 32.415-6.54 22.191-8.532 43.434-19.4 66.373-26.153 7.491-2.205 14.686-6.173 20.902-11.333 8.189-6.797 16.426-13.494 23.511-21.554 15.266-17.369 32.449-32.315 54.159-41.329 4.336-1.8 4.521-3.113 0.996-6.348-9.624-8.833-20.521-15.81-33.021-19.648-10.055-3.087-20.355-5.12-30.853-6.786-12.412-1.97-25.014-3.284-37.389-4.816-15.089-1.868-30.149-4.829-45.461-5.388-5.888-0.215-10.523 1.061-14.109 5.551-2.276 2.849-4.296 5.926-6.215 9.035-8.735 14.151-17.459 28.229-28.089 41.17-10.968 13.352-21.358 27.188-32.478 40.441-7.482 8.917-14.683 18.082-21.727 27.35-4.445 5.849-4.342 6.289 1.289 10.11 14.84 10.067 30.871 16.729 49.697 16.238zm335.03-125.08c1.175-0.261 2.496-0.451 3.75-0.851 5.427-1.73 10.581-3.984 14.718-8.072 10.971-10.844 20.029-23.148 27.333-36.69 4.085-7.574 3.643-11.949-1.908-15.926-20.224-14.486-39.846-29.978-63.158-39.546-17.751-7.286-36.115-7.317-54.467-3.597-10.689 2.166-20.67 6.869-30.108 12.452-17.003 10.058-30.065 23.951-39.886 41.026-1.531 2.663-1.997 4.853 0.585 7.006 6.894 5.75 12.415 12.935 19.895 18.138 16.181 11.255 34.507 18.15 52.172 26.396 2.807 1.31 6.156 1.532 8.767 0.116 6.661-3.612 14.211-3.398 21.24-4.937 9.561-2.093 19.722-3.099 29.418 1.366 3.543 1.63 7.628 2.082 11.649 3.119zm-194.41-287.3c-0.146-7.943-4.927-12.986-11.371-16.237-12.968-6.543-26.404-12.099-40.352-16.22-4.43-1.309-8.972-1.119-13.673 0.431-20.704 6.827-31.166 22.325-31.947 44.234-0.342 9.606-0.586 19.06-2.607 28.651-3.47 16.469-8.435 32.016-18.889 45.402-2.752 3.524-3.311 7.272-1.927 11.222 0.96 2.739 3.041 4.454 6.231 2.776 1.465-0.771 2.754-1.901 4.255-2.572 10.512-4.702 20.208-11.974 32.243-12.17 16.534-0.269 28.833-7.68 39.32-20.001 15.225-17.887 25.455-38.823 37.408-58.72 1.28-2.131 1.25-4.432 1.309-6.796zm-541.46 417.17c6.237-2e-3 15.883-0.196 25.544 0.617 8.616 0.725 17.283 0.947 25.933 1.13 5.495 0.116 7.326-3.198 4.29-7.705-2.837-4.211-6.898-7.229-11.391-9.463-13.028-6.476-21.872-15.485-22.716-31.213-0.5-9.329-6.772-13.581-16.281-13.726-4.756-0.072-9.352 0.629-13.66 2.462-8.885 3.781-18.428 5.652-27.201 9.815-5.345 2.536-10.888 2.726-15.86-1.654-8.481-7.471-18.452-10.042-29.603-8.747-2.959 0.344-6.021 0.316-8.985-0.011-4.976-0.548-7.903 1.291-9.982 5.972-2.408 5.422-4.706 11.054-9.212 15.293-8.731 8.213-17.433 16.456-26.127 24.708-2.658 2.522-5.311 5.056-7.841 7.704-0.885 0.926-1.765 2.286-0.696 3.543 0.538 0.633 1.703 1.029 2.583 1.026 5.329-0.016 10.663-0.383 15.986-0.253 17.646 0.433 35.286 1.218 52.934 1.478 8.636 0.127 17.317-1.237 25.922-0.809 14.336 0.715 28.629 0.702 46.363-0.167zm188.03 301.6c2.527 0 6.184 0.045 9.84-0.011 4.84-0.074 8.873-2.195 12.916-4.698 3.289-2.036 3.702-4.041 2.015-7.328-2.88-5.61-5.675-11.286-8.094-17.105-10.383-24.97-31.668-36.644-55.82-42.2-15.427-3.549-31.238-5.924-46.735-9.672-6.128-1.482-12.607-1.891-17.96-5.424-6.241-4.119-13.515-2.933-20.183-4.728-1.792-0.483-3.462 0.93-3.105 2.843 2.558 13.67 4.135 27.681 10.43 40.3 6.626 13.283 19.382 19.115 32.524 22.747 13.205 3.649 25.896 8.304 38.325 13.84 14.286 6.365 28.305 13.573 45.847 11.436zm127.5-346.21c3.414 0.307 6.47-0.971 9.575-2.245 8.799-3.611 15.305-10.268 22.629-16.007 21.625-16.946 38.701-38.197 56.609-58.58 8.903-10.133 14.594-22.872 20.737-35 2.718-5.366 2.021-6.656-3.84-6.249-16.22 1.126-32.415 2.639-48.606 4.151-3.242 0.303-5.802 2.475-6.367 5.59-1.307 7.202-6.213 12.269-9.562 18.299-7.399 13.322-16.718 25.144-28.085 34.771-13.893 11.766-17.455 28.639-24.793 43.659-2.225 4.554-0.418 7.532 3.993 9.733 2.389 1.192 4.913 2.088 7.71 1.878zm-404.17 138.5c-1e-3 0.107-2e-3 0.214-2e-3 0.321-2.658-0.136-5.314-0.363-7.973-0.393-8.98-0.101-17.964-0.281-26.941-0.12-3.952 0.071-4.988 1.995-2.683 5.008 6.447 8.425 11.803 17.724 19.756 24.96 10.056 9.148 20.495 17.582 32.462 24.395 16.633 9.469 34.361 15.722 52.489 21.227 1.634 0.496 3.543 0.757 4.649-0.663 1.182-1.518 0.101-3.115-0.96-4.44-2.54-3.172-3.698-7.028-5.371-10.64-5.049-10.906-11.132-21.191-19.19-30.179-4.922-5.491-7.865-10.857-4.823-18.869 2.567-6.762-0.976-10.478-8.479-10.571-10.976-0.137-21.956-0.036-32.934-0.036zm1869.7 63.977c2.55 0 4.567 0.174 6.545-0.033 5.589-0.585 6.843-3.062 3.966-8.034-2.002-3.458-4.45-6.571-7.431-9.34-7.368-6.846-15.66-12.332-24.231-17.505-19.749-11.919-40.391-21.776-62.681-27.996-3.242-0.905-6.494-1.595-9.833-1.417-4.008 0.213-5.424 2.23-4.141 5.904 0.763 2.186 1.884 4.268 3.01 6.304 8.83 15.963 23.824 24.718 39.356 32.299 9.223 4.502 19.056 7.822 28.389 12.267 8.683 4.135 17.455 8.525 27.051 7.551zm-1762.2 21.035c3.931 0.465 5.801-1.008 5.569-4.781-0.12-1.956-0.604-3.985-1.371-5.791-7.309-17.209-16.227-33.503-27.957-48.145-5.513-6.881-13.139-11.155-20.284-15.992-0.584-0.396-1.947-0.057-2.726 0.358-0.979 0.522-1.118 1.797-0.587 2.642 4.65 7.396 6.317 16.123 10.235 23.703 5.21 10.081 9.753 20.413 13.968 30.878 3.98 9.881 8.692 18.015 21.249 16.562 0.605-0.068 1.269 0.364 1.904 0.566zm1238.7-839.24c-0.065-1.245-0.999-1.823-1.919-1.875-12.821-0.716-25.232-4.231-37.967-5.507-1.206-0.121-1.77 0.686-1.917 1.714-0.158 1.1 0.519 2.05 1.469 2.223 9.15 1.668 17.101 6.732 25.998 9.099 5.39 1.434 9.204-2.637 13.81-3.936 0.318-0.089 0.364-1.147 0.526-1.718z"/>
	<path d="m2233.2 701.38c4.662 0 9.354-0.33 13.978 0.088 5.192 0.469 6.877 4.432 3.57 8.366-2.552 3.037-5.751 5.536-8.687 8.246-5.376 4.963-10.699 9.986-16.184 14.825-3 2.646-3.142 4.754 0.335 7.005 9.474 6.131 18.946 12.266 28.329 18.535 3.25 2.172 6.712 4.131 4.754 9.464-2.493 6.792-2.661 7.252-9.958 5.707-5.16-1.092-10-3.123-14.905-5.029-13.856-5.386-27.965-9.55-43.108-9.392-10.466 0.109-20.36-2.391-28.959-8.815-5.279-3.944-8.879-9.101-10.073-15.525-1.103-5.934-2.81-11.583-5.069-17.168-2.365-5.847-1.375-8.198 3.847-11.706 7.902-5.308 16.761-7.328 25.611-4.226 4.105 1.439 6.034 0.295 8.697-1.681 6.403-4.751 12.853-9.439 19.299-14.132 1.322-0.962 2.596-2.15 4.089-2.682 3.377-1.204 5.86 0.517 6.135 4.095 0.127 1.648-0.044 3.323-0.144 4.983-0.523 8.715-0.53 8.735 8.45 8.916 3.33 0.067 6.662 0.011 9.993 0.011v0.115z"/>
	<path d="m2017.2 322.39c5.973 2.628 10.597-1.224 15.296-5.111 4.607-3.811 9.324-7.491 14.057-11.146 1.904-1.471 4.105-2.618 6.288-0.625 1.688 1.54 1.579 3.69 0.558 5.519-1.631 2.924-4.105 6.106-1.324 9.038 2.654 2.797 6.677 0.901 9.337-0.377 5.056-2.429 9.868-0.682 14.706-0.387 4.651 0.283 6.187 3.907 3.368 7.659-3.386 4.508-7.253 8.658-10.952 12.928-1.743 2.012-3.541 3.981-5.387 5.898-2.498 2.594-1.825 4.57 0.948 6.42 6.891 4.596 13.698 9.319 20.616 13.875 1.677 1.104 3.41 1.996 4.463 3.831 2.514 4.378 0.042 9.53-4.844 8.922-6.405-0.797-13.454 2.432-19.229-2.771-0.454-0.409-1.337-0.778-1.851-0.619-10.421 3.222-19.554-3.933-29.925-3.395-15.141 0.786-25.825-6.993-31.132-21.557-1.13-3.1-2.524-6.111-3.932-9.1-1.442-3.06-5.981-5.336-2.94-9.519 3.289-4.524 6.448-9.523 13.128-9.486 2.664 0.015 5.327 3e-3 8.751 3e-3z"/>
	<path d="m1237.1 308.24c-3.994 0.046-8.078-0.173-11.839 1.319-3.835 1.522-7.738 1.984-11.739 1.612-5.832-0.542-11.044 2.145-16.614 2.899-2.637 0.357-5.333 0.808-6.914-2.318-1.366-2.702-1.129-5.422 0.692-7.488 2.619-2.971 5.709-5.542 8.712-8.151 1.236-1.074 2.81-1.749 4.162-2.701 10.744-7.564 10.752-7.582 2.725-18.245-2.798-3.717-5.845-7.258-8.484-11.083-3.201-4.641-1.813-7.431 3.75-7.624 5.315-0.185 10.659-0.281 15.96 0.058 4.078 0.26 5.411-1.437 5.174-5.169-0.084-1.323-0.055-2.673 0.109-3.987 0.448-3.602 3.039-4.429 5.784-3.34 2.709 1.075 5.12 3 7.51 4.76 3.478 2.561 6.929 5.18 10.184 8.014 2.829 2.463 5.662 3.273 9.076 1.41 7.284-3.975 13.588-0.827 19.423 3.195 6.588 4.541 7.076 7.989 3.133 15.159-1.114 2.026-2.545 3.943-3.288 6.097-4.502 13.05-14.304 20.162-26.702 24.736-3.671 1.354-7.208 0.686-10.814 0.847z"/>
	<path d="m1751.5 583.62c-4.251 0.263-5.135-0.818-5.13-5.013 5e-3 -4.955 3.208-7.808 6.428-10.71 4.187-3.773 9.489-6.049 13.427-10.212 6.079-6.426 6.041-7.626-1.047-13.172-4.962-3.883-9.85-7.86-14.788-11.774-1.647-1.306-3.124-2.884-2.281-5.032 0.826-2.104 3.057-2.349 5.082-2.383 5.65-0.094 11.3-0.124 16.95-0.163 3.391-0.024 5.335-0.429 4.537-5.08-1.204-7.021 2.409-9.622 9.225-6.705 5.158 2.207 10.546 3.857 15.57 6.139 7.45 3.384 14.752 2.951 22.312 1.914 2.328-0.319 4.628-0.612 6.91 0.059 2.62 0.77 4.981 2.249 6.473 4.417 2.212 3.214-1.176 4.695-2.783 6.486-3.962 4.417-4.617 10.281-6.166 15.469-3.88 12.991-12.919 19.502-25.071 22.876-12.37 3.434-24.895 6.336-37.164 10.086-4.129 1.262-8.113 2.708-12.484 2.798z"/>
	<path d="m1487.3 839.73c-6.74-0.492-13.267 0.843-19.753 2.354-3.322 0.774-6.804 1.992-8.691-2.035-1.736-3.703-0.756-7.217 2.355-9.906 2.261-1.955 4.709-3.693 7.074-5.528 1.84-1.428 3.756-2.768 5.503-4.301 4.459-3.914 4.516-4.351 0.874-8.746-2.55-3.077-5.322-5.97-7.882-9.039-1.702-2.04-3.469-4.1-4.744-6.407-2.789-5.044-0.562-8.742 5.067-8.45 2.291 0.119 4.708 0.589 6.773 1.541 2.524 1.163 5.09 1.529 7.744 1.652 6.271 0.29 7.037-0.494 6.704-6.601-0.036-0.66-0.246-1.309-0.341-1.968-0.329-2.3-0.998-4.797 1.356-6.388 2.487-1.681 4.255 0.17 6.167 1.573 4.56 3.343 9.321 6.413 13.832 9.818 4.108 3.101 8.051 5.031 13.678 3.898 6.586-1.327 13.158-0.413 18.567 4.626 5.163 4.81 5.768 8.183 1.279 13.586-2.794 3.362-5.063 6.893-6.878 10.894-4.457 9.826-12.205 15.117-22.997 16.668-8.546 1.226-16.988 3.093-25.687 2.759z"/>
	<path d="m2157.9 267.82c7.584 2.117 15.262 3.957 22.715 6.466 3.877 1.305 4.264 3.67 1.741 6.896-3.061 3.915-6.29 7.712-9.644 11.379-1.93 2.11-1.249 3.399 0.724 4.736 4.384 2.972 8.624 6.183 13.168 8.882 2.749 1.633 3.848 3.731 3.052 6.534-0.855 3.008-3.719 4.134-6.349 3.656-6.27-1.139-12.405-1.315-18.677-0.069-1.367 0.272-3.209-0.798-4.552-1.677-2.32-1.52-4.913-2.784-7.472-2.248-6.984 1.461-12.561-2.812-18.822-4.171-4.983-1.082-8.906-4.094-10.087-9.775-0.593-2.85-1.419-5.826-4.292-7.587-4.215-2.583-3.386-5.622-1.073-9.237 3.298-5.157 7.197-8.344 13.795-7.274 6.095 0.988 11.854-0.353 17.001-3.884 2.622-1.8 5.559-2.029 8.772-2.627z"/>
	<path d="m1898.1 68.566c2.981-0.21 5.16 1.524 6.867 3.491 5.336 6.151 11.897 7.766 19.72 6.554 3.562-0.552 7.34-0.418 10.927 0.079 5.204 0.72 7.214 4.397 5.247 9.143-2.139 5.162-3.486 10.666-6.839 15.317-5.339 7.405-12.37 11.778-21.571 12.097-8.327 0.289-15.933 3.309-23.543 6.097-4.297 1.574-9.059 0.773-13.157 3.526-2.017 1.355-4.377-1.513-3.284-4.181 1.896-4.628 4.587-8.85 8.11-12.43 3.246-3.298 8.69-6.002 9.083-10.115 0.463-4.846-6.316-5.829-9.533-8.964-1.669-1.626-3.894-2.877-3.039-5.672 0.684-2.236 2.797-2.799 4.772-2.957 3.017-0.241 5.564-1.222 8.313-2.601 2.95-1.48 5.12-2.503 4.885-6.207-0.121-1.873 1.095-3.007 3.042-3.177z"/>
</svg>
